# xmcd
#
# Track frame offsets:
#	150
#	13423
#	30898
#	49943
#	69885
#	85410
#	102726
#	116826
#	133326
#	148026
#	161299
#	178774
#	197819
#	217761
#	233286
#	250602
#	264702
#	281202
#
# Disc length: 3945 seconds
#
# Revision: 1
# Processed by: cddbd v1.5.2PL0 Copyright (c) Steve Scherf et al.
# Submitted via: audiograbber 1.83.01
#
DISCID=050f6712
DTITLE=Various Artist - PHN0107
DYEAR=2001
DGENRE=
TTITLE0=Keith Urban - Where The Blacktop Ends
TTITLE1=Jo Dee Messina - Downtime
TTITLE2=Lonestar - I'm Already There
TTITLE3=SheDaisy - Still Holding Out For You
TTITLE4=Billy Gilman - There's A Hero
TTITLE5=Darryl Worley - Second Wind
TTITLE6=Tracy Lawrence - Unforgiven
TTITLE7=Lila McCann - Come A Little Closer
TTITLE8=Alabama - Will You Marry Me
TTITLE9=Keith Urban - Where The Blacktop Ends (vocals)
TTITLE10=Jo Dee Messina - Downtime (vocals)
TTITLE11=Lonestar - I'm Already There (vocals)
TTITLE12=SheDaisy - Still Holding Out For You (vocals)
TTITLE13=Billy Gilman - There's A Hero (vocals)
TTITLE14=Darryl Worley - Second Wind (vocals)
TTITLE15=Tracy Lawrence - Unforgiven (vocals)
TTITLE16=Lila McCann - Come A Little Closer (vocals)
TTITLE17=Alabama - Will You Marry Me (vocals)
EXTD=
EXTT0=
EXTT1=
EXTT2=
EXTT3=
EXTT4=
EXTT5=
EXTT6=
EXTT7=
EXTT8=
EXTT9=
EXTT10=
EXTT11=
EXTT12=
EXTT13=
EXTT14=
EXTT15=
EXTT16=
EXTT17=
PLAYORDER=
